<svg width="13" height="17" viewBox="0 0 13 17" fill="none" xmlns="http://www.w3.org/2000/svg">
<path d="M6.75 0.40625C3.55839 0.40625 0.96875 2.73718 0.96875 5.60938C0.96875 10.2344 6.75 16.5938 6.75 16.5938C6.75 16.5938 12.5312 10.2344 12.5312 5.60938C12.5312 2.73718 9.94161 0.40625 6.75 0.40625ZM6.75 8.5C6.29263 8.5 5.84553 8.36437 5.46524 8.11027C5.08496 7.85617 4.78856 7.49501 4.61353 7.07246C4.4385 6.6499 4.39271 6.18493 4.48193 5.73635C4.57116 5.28777 4.79141 4.87572 5.11482 4.55232C5.43822 4.22891 5.85027 4.00866 6.29885 3.91943C6.74743 3.83021 7.2124 3.876 7.63495 4.05103C8.05751 4.22606 8.41867 4.52246 8.67277 4.90274C8.92687 5.28303 9.0625 5.73013 9.0625 6.1875C9.06183 6.80061 8.81798 7.38841 8.38445 7.82195C7.95091 8.25548 7.36311 8.49933 6.75 8.5Z" fill="#3A3A3A"/>
</svg>
