<svg width="41" height="43" viewBox="0 0 41 43" fill="none" xmlns="http://www.w3.org/2000/svg">
<path d="M0 18.0713C0 8.1411 8.05003 0.0910645 17.9803 0.0910645V24.9286C17.9803 34.8588 9.93022 42.9088 0 42.9088V18.0713Z" fill="#2495FD"/>
<path d="M20.5889 9.86151C20.5889 4.46551 24.9632 0.0911865 30.3592 0.0911865C35.7552 0.0911865 40.1295 4.46551 40.1295 9.86151V10.4256C40.1295 15.8216 35.7552 20.1959 30.3592 20.1959C24.9632 20.1959 20.5889 15.8216 20.5889 10.4256V9.86151Z" fill="#94A0DF"/>
<path d="M20.5889 32.5745C20.5889 27.1785 24.9632 22.8042 30.3592 22.8042C35.7552 22.8042 40.1295 27.1785 40.1295 32.5745V33.1386C40.1295 38.5346 35.7552 42.9089 30.3592 42.9089C24.9632 42.9089 20.5889 38.5346 20.5889 33.1386V32.5745Z" fill="#36ACB4"/>
</svg>
